<svg xmlns="http://www.w3.org/2000/svg" width="25.397" height="28.286" viewBox="0 0 25.397 28.286"><defs><style>.a{fill:#b0b1b8;}</style></defs><g transform="translate(-60.13 -10.106)"><path class="a" d="M85.4,16.079a.5.5,0,0,0-.407-.421c-5.222-.955-10.845-4.708-11.8-5.369a.543.543,0,0,0-.274-.167.524.524,0,0,0-.283.012.031.031,0,0,1-.014,0,.486.486,0,0,0-.216.133c-.849.589-6.486,4.42-11.74,5.389a.5.5,0,0,0-.4.421c-.023.165-2.174,16.523,12.245,22.236a.156.156,0,0,0,.038.02.508.508,0,0,0,.159.049.441.441,0,0,0,.087.009.512.512,0,0,0,.242-.061c.012-.006.023-.014.038-.02C87.591,32.6,85.426,16.243,85.4,16.079ZM72.782,37.345C60.346,32.354,61,18.916,61.209,16.569c5.043-1.045,10.271-4.46,11.573-5.349,1.313.889,6.6,4.307,11.665,5.349C84.663,18.916,85.333,32.348,72.782,37.345Z" transform="translate(0)"/><path class="a" d="M387.317,294.356a3.357,3.357,0,0,0-.73,6.668v4.829a.5.5,0,0,0,1,0v-4.829a3.357,3.357,0,0,0-.274-6.668Zm2.122,3.51a2.354,2.354,0,1,1-2.353-2.514c.052,0,.107,0,.162.006A2.359,2.359,0,0,1,389.439,297.866Z" transform="translate(-314.261 -276.037)"/></g></svg>