<svg xmlns="http://www.w3.org/2000/svg" width="18.518" height="19.281" viewBox="0 0 18.518 19.281"><defs><style>.a{fill:#b0b1b8;stroke:#b0b1b8;stroke-width:0.5px;}</style></defs><g transform="translate(-29.824 -9.75)"><path class="a" d="M247.108,21.242a4.728,4.728,0,0,0,3.48-1.74,5.71,5.71,0,0,0,1.428-3.881,5.938,5.938,0,0,0-1.428-3.971,4.542,4.542,0,0,0-7,0,5.9,5.9,0,0,0-1.384,3.971,5.671,5.671,0,0,0,1.384,3.881,4.734,4.734,0,0,0,3.524,1.74Zm-2.855-9.011a3.67,3.67,0,0,1,5.667,0,5.008,5.008,0,0,1,1.2,3.39,4.783,4.783,0,0,1-1.2,3.3,3.525,3.525,0,0,1-5.667,0,4.962,4.962,0,0,1-1.159-3.3,5.2,5.2,0,0,1,1.159-3.39Z" transform="translate(-208.058)"/><path class="a" d="M45.518,630.315a.134.134,0,0,1-.088-.046,12.765,12.765,0,0,1-4.061-1.962.276.276,0,0,0-.312-.09.34.34,0,0,0-.312.178.625.625,0,0,0-.09.31.727.727,0,0,0,.178.312,13.678,13.678,0,0,0,4.283,2.1c1.606.849,2.231,1.74,1.962,2.721a1.843,1.843,0,0,1-1.338.4H32.446a1.712,1.712,0,0,1-1.338-.4c-.268-.981.356-1.872,1.918-2.721a13.7,13.7,0,0,0,4.283-2.1.449.449,0,0,0,.178-.312.272.272,0,0,0-.09-.31.276.276,0,0,0-.268-.178.345.345,0,0,0-.356.09,12.062,12.062,0,0,1-4.015,1.962.136.136,0,0,1-.09.046c-2.229,1.205-3.032,2.5-2.363,3.925a.044.044,0,0,0,.044.046c.312.581.983.847,2.1.847H45.74c1.071,0,1.784-.266,2.1-.847a.045.045,0,0,1,.046-.046c.625-1.426-.178-2.719-2.365-3.925Z" transform="translate(0 -606.352)"/></g></svg>